<svg width="507" height="176" viewBox="0 0 507 176" fill="none" xmlns="http://www.w3.org/2000/svg">
<path d="M166.205 130.947C162.962 130.947 160.445 130.051 158.653 128.259C156.946 126.467 156.093 123.992 156.093 120.835V50.5628C156.093 47.2348 156.946 44.7174 158.653 43.0108C160.36 41.3041 162.834 40.4508 166.077 40.4508C169.234 40.4508 171.666 41.3041 173.373 43.0108C175.08 44.7174 175.933 47.2348 175.933 50.5628V114.179H210.237C212.968 114.179 215.058 114.904 216.509 116.355C218.045 117.805 218.813 119.853 218.813 122.499C218.813 125.229 218.045 127.32 216.509 128.771C215.058 130.221 212.968 130.947 210.237 130.947H166.205ZM249.722 132.355C244.431 132.355 240.037 131.373 236.538 129.411C233.039 127.448 230.437 124.504 228.73 120.579C227.109 116.568 226.298 111.619 226.298 105.731V76.8028C226.298 73.5601 227.109 71.1281 228.73 69.5068C230.437 67.8854 232.826 67.0748 235.898 67.0748C238.97 67.0748 241.359 67.8854 243.066 69.5068C244.773 71.1281 245.626 73.5601 245.626 76.8028V106.243C245.626 109.997 246.394 112.813 247.93 114.691C249.466 116.483 251.898 117.379 255.226 117.379C258.895 117.379 261.882 116.099 264.186 113.539C266.575 110.893 267.77 107.437 267.77 103.171V76.8028C267.77 73.5601 268.581 71.1281 270.202 69.5068C271.909 67.8854 274.298 67.0748 277.37 67.0748C280.527 67.0748 282.917 67.8854 284.538 69.5068C286.245 71.1281 287.098 73.5601 287.098 76.8028V122.243C287.098 128.813 283.983 132.099 277.754 132.099C274.682 132.099 272.335 131.245 270.714 129.539C269.093 127.832 268.282 125.4 268.282 122.243V113.667L270.202 118.659C268.325 123.011 265.637 126.381 262.138 128.771C258.639 131.16 254.501 132.355 249.722 132.355ZM311.782 132.099C308.625 132.099 306.193 131.245 304.486 129.539C302.865 127.832 302.054 125.4 302.054 122.243V49.4108C302.054 46.1681 302.865 43.7361 304.486 42.1148C306.193 40.4081 308.625 39.5548 311.782 39.5548C314.854 39.5548 317.201 40.4081 318.822 42.1148C320.529 43.7361 321.382 46.1681 321.382 49.4108V94.0828H321.638L340.198 73.4748C342.075 71.3414 343.782 69.7628 345.318 68.7388C346.939 67.6294 349.073 67.0748 351.718 67.0748C354.363 67.0748 356.369 67.7574 357.734 69.1228C359.185 70.4881 359.91 72.1521 359.91 74.1148C359.995 75.9921 359.185 77.9121 357.478 79.8748L337.894 101.763V94.4668L359.654 119.555C361.275 121.517 361.958 123.48 361.702 125.443C361.531 127.405 360.678 129.027 359.142 130.307C357.606 131.501 355.643 132.099 353.254 132.099C350.353 132.099 348.006 131.544 346.214 130.435C344.507 129.325 342.758 127.619 340.966 125.315L321.638 103.811H321.382V122.243C321.382 128.813 318.182 132.099 311.782 132.099Z" fill="#222020"/>
<path d="M386.993 132.099C384.604 132.099 382.641 131.544 381.105 130.435C379.654 129.325 378.716 127.832 378.289 125.955C377.948 124.077 378.332 121.987 379.441 119.683L412.209 47.8748C413.574 44.9734 415.196 42.8828 417.073 41.6028C418.95 40.2374 421.126 39.5548 423.601 39.5548C426.076 39.5548 428.252 40.2374 430.129 41.6028C432.006 42.8828 433.585 44.9734 434.865 47.8748L467.889 119.683C468.998 121.987 469.382 124.12 469.041 126.083C468.785 127.96 467.932 129.453 466.481 130.563C465.03 131.587 463.153 132.099 460.849 132.099C457.948 132.099 455.686 131.416 454.065 130.051C452.529 128.685 451.164 126.552 449.969 123.651L442.289 105.859L450.225 111.363H396.849L404.785 105.859L397.233 123.651C395.953 126.637 394.588 128.813 393.137 130.179C391.772 131.459 389.724 132.099 386.993 132.099ZM423.345 61.8268L406.961 100.867L403.505 95.8748H443.569L440.113 100.867L423.601 61.8268H423.345ZM488.872 131.971C485.715 131.971 483.283 131.075 481.576 129.283C479.955 127.405 479.144 124.803 479.144 121.475V77.6988C479.144 74.2854 479.955 71.6828 481.576 69.8908C483.283 68.0134 485.715 67.0748 488.872 67.0748C491.944 67.0748 494.291 68.0134 495.912 69.8908C497.619 71.6828 498.472 74.2854 498.472 77.6988V121.475C498.472 124.803 497.661 127.405 496.04 129.283C494.419 131.075 492.029 131.971 488.872 131.971ZM488.872 56.5788C485.288 56.5788 482.515 55.7681 480.552 54.1468C478.675 52.4401 477.736 50.0508 477.736 46.9788C477.736 43.8214 478.675 41.4321 480.552 39.8108C482.515 38.1041 485.288 37.2508 488.872 37.2508C492.456 37.2508 495.187 38.1041 497.064 39.8108C498.941 41.4321 499.88 43.8214 499.88 46.9788C499.88 50.0508 498.941 52.4401 497.064 54.1468C495.187 55.7681 492.456 56.5788 488.872 56.5788Z" fill="#222020"/>
<path d="M22.672 111.909C22.672 105.744 17.6743 100.747 11.5092 100.747C5.34419 100.747 0.346436 105.744 0.346436 111.909V120.281C0.346436 126.447 5.34419 131.444 11.5092 131.444C17.6743 131.444 22.672 126.447 22.672 120.281V111.909Z" fill="#222020"/>
<path d="M54.765 88.9519C54.765 82.7868 49.7673 77.7891 43.6022 77.7891C37.4372 77.7891 32.4395 82.7868 32.4395 88.9519V125.231C32.4395 131.396 37.4372 136.394 43.6022 136.394C49.7673 136.394 54.765 131.396 54.765 125.231V88.9519Z" fill="#222020"/>
<path d="M86.8581 60.988C86.8581 54.8229 81.8603 49.8252 75.6953 49.8252C69.5302 49.8252 64.5325 54.8229 64.5325 60.988V127.965C64.5325 134.13 69.5302 139.128 75.6953 139.128C81.8603 139.128 86.8581 134.13 86.8581 127.965V60.988Z" fill="#222020"/>
<path d="M118.951 34.7233C118.951 28.5583 113.953 23.5605 107.788 23.5605C101.623 23.5605 96.6255 28.5583 96.6255 34.7233V132.398C96.6255 138.563 101.623 143.561 107.788 143.561C113.953 143.561 118.951 138.563 118.951 132.398V34.7233Z" fill="#222020"/>
</svg>
