<svg width="502" height="176" viewBox="0 0 502 176" fill="none" xmlns="http://www.w3.org/2000/svg">
<path d="M166.181 130.947C163.536 130.947 161.488 130.221 160.037 128.771C158.586 127.235 157.861 125.144 157.861 122.499V48.6428C157.861 45.9121 158.544 43.8641 159.909 42.4988C161.36 41.0481 163.408 40.3228 166.053 40.3228C168.698 40.3228 170.704 41.0481 172.069 42.4988C173.52 43.8641 174.245 45.9121 174.245 48.6428V116.995H211.365C213.669 116.995 215.418 117.592 216.613 118.787C217.893 119.981 218.533 121.688 218.533 123.907C218.533 126.125 217.893 127.875 216.613 129.155C215.418 130.349 213.669 130.947 211.365 130.947H166.181ZM249.606 132.227C244.401 132.227 240.091 131.288 236.678 129.411C233.265 127.448 230.705 124.547 228.998 120.707C227.377 116.867 226.566 112.088 226.566 106.371V75.3948C226.566 72.6641 227.249 70.6588 228.614 69.3788C229.979 68.0134 231.942 67.3308 234.502 67.3308C237.062 67.3308 239.025 68.0134 240.39 69.3788C241.841 70.6588 242.566 72.6641 242.566 75.3948V106.627C242.566 111.064 243.462 114.349 245.254 116.483C247.046 118.616 249.905 119.683 253.83 119.683C258.097 119.683 261.595 118.232 264.326 115.331C267.057 112.344 268.422 108.419 268.422 103.555V75.3948C268.422 72.6641 269.105 70.6588 270.47 69.3788C271.835 68.0134 273.798 67.3308 276.358 67.3308C278.918 67.3308 280.881 68.0134 282.246 69.3788C283.697 70.6588 284.422 72.6641 284.422 75.3948V123.779C284.422 129.24 281.819 131.971 276.614 131.971C274.139 131.971 272.219 131.288 270.854 129.923C269.489 128.472 268.806 126.424 268.806 123.779V114.051L270.598 117.891C268.806 122.499 266.075 126.04 262.406 128.515C258.822 130.989 254.555 132.227 249.606 132.227ZM309.011 131.971C306.451 131.971 304.488 131.288 303.123 129.923C301.758 128.472 301.075 126.424 301.075 123.779V47.7468C301.075 45.1014 301.758 43.0961 303.123 41.7308C304.488 40.3654 306.451 39.6828 309.011 39.6828C311.571 39.6828 313.534 40.3654 314.899 41.7308C316.35 43.0961 317.075 45.1014 317.075 47.7468V94.9788H317.331L338.451 72.7068C340.158 71.0001 341.651 69.6774 342.931 68.7388C344.211 67.8001 345.96 67.3308 348.179 67.3308C350.398 67.3308 352.062 67.9281 353.171 69.1228C354.366 70.2321 354.963 71.5974 354.963 73.2188C354.963 74.8401 354.195 76.4614 352.659 78.0828L330.387 101.635V94.9788L354.835 121.347C356.371 122.968 357.054 124.632 356.883 126.339C356.798 127.96 356.115 129.325 354.835 130.435C353.555 131.459 351.934 131.971 349.971 131.971C347.582 131.971 345.662 131.501 344.211 130.563C342.846 129.624 341.31 128.216 339.603 126.339L317.331 103.043H317.075V123.779C317.075 129.24 314.387 131.971 309.011 131.971Z" fill="#222020"/>
<path d="M379.767 131.971C377.719 131.971 376.055 131.501 374.775 130.563C373.58 129.624 372.855 128.387 372.599 126.851C372.343 125.229 372.642 123.437 373.495 121.475L407.287 46.5948C408.396 44.1201 409.719 42.3708 411.255 41.3468C412.876 40.2374 414.711 39.6828 416.759 39.6828C418.722 39.6828 420.471 40.2374 422.007 41.3468C423.628 42.3708 424.994 44.1201 426.103 46.5948L460.023 121.475C460.962 123.437 461.303 125.229 461.047 126.851C460.791 128.472 460.066 129.752 458.871 130.691C457.676 131.544 456.098 131.971 454.135 131.971C451.746 131.971 449.868 131.416 448.503 130.307C447.223 129.112 446.071 127.32 445.047 124.931L436.727 105.603L443.639 110.083H389.623L396.535 105.603L388.343 124.931C387.234 127.405 386.082 129.197 384.887 130.307C383.692 131.416 381.986 131.971 379.767 131.971ZM416.503 58.4988L398.583 101.123L395.255 97.0268H438.007L434.807 101.123L416.759 58.4988H416.503ZM482.313 131.971C479.668 131.971 477.62 131.245 476.169 129.795C474.804 128.259 474.121 126.168 474.121 123.523V48.1308C474.121 45.4001 474.804 43.3094 476.169 41.8588C477.62 40.4081 479.668 39.6828 482.313 39.6828C484.958 39.6828 486.964 40.4081 488.329 41.8588C489.78 43.3094 490.505 45.4001 490.505 48.1308V123.523C490.505 126.168 489.822 128.259 488.457 129.795C487.092 131.245 485.044 131.971 482.313 131.971Z" fill="#222020"/>
<path d="M23.672 111.909C23.672 105.744 18.6743 100.747 12.5092 100.747C6.34419 100.747 1.34644 105.744 1.34644 111.909V120.281C1.34644 126.447 6.34419 131.444 12.5092 131.444C18.6743 131.444 23.672 126.447 23.672 120.281V111.909Z" fill="#222020"/>
<path d="M55.765 88.9519C55.765 82.7868 50.7673 77.7891 44.6022 77.7891C38.4372 77.7891 33.4395 82.7868 33.4395 88.9519V125.231C33.4395 131.396 38.4372 136.394 44.6022 136.394C50.7673 136.394 55.765 131.396 55.765 125.231V88.9519Z" fill="#222020"/>
<path d="M87.8581 60.988C87.8581 54.8229 82.8603 49.8252 76.6953 49.8252C70.5302 49.8252 65.5325 54.8229 65.5325 60.988V127.965C65.5325 134.13 70.5302 139.128 76.6953 139.128C82.8603 139.128 87.8581 134.13 87.8581 127.965V60.988Z" fill="#222020"/>
<path d="M119.951 34.7233C119.951 28.5583 114.953 23.5605 108.788 23.5605C102.623 23.5605 97.6255 28.5583 97.6255 34.7233V132.398C97.6255 138.563 102.623 143.561 108.788 143.561C114.953 143.561 119.951 138.563 119.951 132.398V34.7233Z" fill="#222020"/>
</svg>
