<svg width="88" height="121" viewBox="0 0 88 121" fill="none" xmlns="http://www.w3.org/2000/svg">
<path d="M23.2172 66.1501C23.2172 59.9851 18.2194 54.9873 12.0544 54.9873C5.88935 54.9873 0.891602 59.9851 0.891602 66.1501V102.429C0.891602 108.594 5.88935 113.592 12.0544 113.592C18.2194 113.592 23.2172 108.594 23.2172 102.429V66.1501Z" fill="#222020"/>
<path d="M55.3102 38.1862C55.3102 32.0212 50.3124 27.0234 44.1474 27.0234C37.9824 27.0234 32.9846 32.0212 32.9846 38.1862V105.163C32.9846 111.328 37.9824 116.326 44.1474 116.326C50.3124 116.326 55.3102 111.328 55.3102 105.163V38.1862Z" fill="#222020"/>
<path d="M87.4032 11.9216C87.4032 5.75654 82.4055 0.758789 76.2404 0.758789C70.0754 0.758789 65.0776 5.75654 65.0776 11.9216V109.596C65.0776 115.761 70.0754 120.759 76.2404 120.759C82.4055 120.759 87.4032 115.761 87.4032 109.596V11.9216Z" fill="#222020"/>
</svg>
