<svg width="87" height="121" viewBox="0 0 87 121" fill="none" xmlns="http://www.w3.org/2000/svg">
<path d="M22.4906 65.447C22.4906 59.2819 17.4929 54.2842 11.3278 54.2842C5.16279 54.2842 0.165039 59.2819 0.165039 65.447V101.726C0.165039 107.891 5.16279 112.889 11.3278 112.889C17.4929 112.889 22.4906 107.891 22.4906 101.726V65.447Z" fill="#FAFCFE"/>
<path d="M54.5836 37.4831C54.5836 31.3181 49.5859 26.3203 43.4208 26.3203C37.2558 26.3203 32.2581 31.3181 32.2581 37.4831V104.46C32.2581 110.625 37.2558 115.623 43.4208 115.623C49.5859 115.623 54.5836 110.625 54.5836 104.46V37.4831Z" fill="#FAFCFE"/>
<path d="M86.6767 11.2185C86.6767 5.05342 81.6789 0.0556641 75.5139 0.0556641C69.3488 0.0556641 64.3511 5.05342 64.3511 11.2185V108.893C64.3511 115.058 69.3488 120.056 75.5139 120.056C81.6789 120.056 86.6767 115.058 86.6767 108.893V11.2185Z" fill="#FAFCFE"/>
</svg>
